<svg width="149" height="39" viewBox="0 0 149 39" fill="none" xmlns="http://www.w3.org/2000/svg">
<path d="M93.8867 22.7657C93.8867 21.1188 95.1626 19.8322 96.7829 19.8194C98.4543 19.8065 99.7557 21.1058 99.7557 22.7527C99.7557 24.3866 98.4032 25.7376 96.7956 25.7246C95.1753 25.6989 93.8867 24.3739 93.8867 22.7657Z" fill="#AD39B4"/>
<path d="M62.9285 12.0879C62.9285 12.6797 62.9156 13.1686 62.9285 13.6575C62.954 14.2879 62.6348 14.6095 62.0609 14.7382C61.4993 14.8668 60.938 14.9698 60.3383 15.0855C60.4406 15.6259 60.5807 16.1405 60.6191 16.6551C60.8231 19.6657 59.1647 22.0072 56.2429 22.9206C54.7373 23.3967 53.1937 23.4481 51.6499 23.2294C51.1012 23.1523 50.5654 23.5253 50.3867 24.13C50.2336 24.6576 50.4632 25.1722 51.0757 25.3008C52.1092 25.5195 53.168 25.6224 54.2143 25.7512C55.8347 25.9442 57.4805 25.9956 59.0753 26.3042C61.6397 26.8191 62.8646 28.6203 62.5328 31.2062C62.3414 32.6728 61.5761 33.8306 60.4787 34.7827C58.9223 36.1337 57.0722 36.7768 55.0691 36.9828C52.2751 37.2657 49.5446 37.06 47.0824 35.5162C45.4876 34.5255 44.773 32.7757 45.2068 31.1161C45.5257 29.9196 46.4062 29.2377 47.4268 28.6974C47.5927 28.6073 47.7712 28.5301 48.0391 28.4143C46.7888 27.681 46.2784 26.6131 46.4953 25.2493C46.7251 23.8985 47.6819 23.0751 48.8174 22.3803C48.4348 22.0974 48.0646 21.8529 47.7457 21.5698C44.7475 18.9067 45.2578 14.1078 48.8047 12.1908C51.4457 10.7627 54.2143 10.7884 56.9957 11.8305C57.3656 11.9721 57.7612 12.0621 58.1567 12.075C59.726 12.1007 61.2953 12.0879 62.9285 12.0879ZM53.5364 33.8179C53.572 33.8205 53.5306 33.8174 53.5891 33.8179C53.7805 33.8179 53.9719 33.8306 54.1633 33.8179C55.286 33.7277 56.4088 33.6119 57.404 32.9944C58.1183 32.557 58.4756 31.9138 58.3864 31.0646C58.3097 30.2669 57.7102 29.9838 57.0722 29.7523C56.8553 29.6752 56.6257 29.6108 56.396 29.585C54.763 29.4564 53.1425 29.3278 51.5095 29.212C51.2416 29.1863 50.9482 29.1219 50.6929 29.1733C50.0167 29.3149 49.111 30.4599 49.0471 31.219C48.9706 32.1325 49.3789 32.93 50.2975 33.2261C51.3563 33.5862 52.1433 33.7163 53.5364 33.8179ZM53.3978 20.4762C54.3929 20.4377 55.4135 20.219 56.0642 19.254C56.8043 18.1604 56.8553 16.9382 56.2556 15.7932C55.5284 14.4165 54.2143 14.2621 52.8491 14.3393C51.6626 14.4037 50.7184 14.8797 50.2081 16.0247C50.1571 16.1405 50.1188 16.2691 50.0806 16.3849C49.4554 18.7007 50.8588 20.4762 53.3978 20.4762Z" fill="#08DDDD"/>
<path d="M76.6553 28.3882C74.5756 27.1403 74.3714 24.1941 77.3315 22.4443C76.6298 21.6466 75.7367 20.9263 75.2135 19.987C73.3891 16.7319 75.086 12.8337 78.7859 11.6244C81.1973 10.8396 83.5958 10.9168 85.9307 11.946C86.1731 12.0489 86.4539 12.1004 86.7218 12.1133C88.0997 12.1261 89.4776 12.1004 90.8682 12.1004C91.0979 12.1004 91.3275 12.1004 91.6211 12.1004C91.6211 12.7566 91.7103 13.3741 91.5827 13.9273C91.5189 14.2361 91.1363 14.5963 90.8172 14.7121C90.2813 14.9308 89.669 14.9823 89.0438 15.0981C89.1332 15.5612 89.2607 15.9858 89.3117 16.4233C89.6306 19.4724 88.0103 21.9425 85.0631 22.8945C83.5448 23.3964 81.9884 23.4735 80.4062 23.2291C79.7939 23.139 79.2452 23.4992 79.0922 24.1169C78.9518 24.683 79.1815 25.1589 79.8577 25.3004C80.8655 25.5064 81.9119 25.5963 82.9325 25.7251C84.5783 25.9181 86.237 25.9566 87.8573 26.2912C90.3962 26.8187 91.6082 28.6841 91.2255 31.2573C91.0214 32.6725 90.2687 33.8046 89.2097 34.7309C87.6149 36.1333 85.6883 36.7765 83.6213 36.9695C81.0698 37.214 78.569 36.9952 76.247 35.773C74.3332 34.7696 73.4273 32.9813 73.8739 31.1415C74.0908 30.2281 74.665 29.5977 75.4049 29.0958C75.7877 28.8384 76.2088 28.6456 76.6553 28.3882ZM82.1513 33.8232C83.2229 33.8232 83.9276 33.7788 84.6677 33.5474C85.3694 33.3287 86.1221 32.9941 86.6453 32.5052C87.5894 31.6176 87.2192 30.3053 86.0072 29.8421C85.7138 29.7263 85.4075 29.6234 85.0886 29.5977C83.2514 29.4304 81.4142 29.3016 79.577 29.1602C79.5005 29.1602 79.4111 29.173 79.3346 29.1987C78.569 29.4561 77.7653 30.5497 77.7398 31.3472C77.7014 32.2351 78.1736 32.9941 79.1687 33.3029C80.1893 33.6245 81.0796 33.8232 82.1513 33.8232ZM81.9755 14.3133C80.8274 14.3133 79.7684 14.5706 79.1048 15.6256C78.1991 17.0665 78.6584 19.1635 80.0234 19.987C81.6056 20.939 84.119 20.4374 84.9227 19.022C84.9992 18.8934 85.0631 18.7518 85.1141 18.6105C86.0072 16.2687 84.5654 14.3004 81.9755 14.3133Z" fill="#08DDDD"/>
<path d="M104.853 28.329C102.659 26.9395 102.761 23.9675 105.734 22.2822C104.394 21.4845 103.386 20.4296 102.965 18.8985C102.085 15.7465 103.68 12.7102 106.844 11.6038C109.281 10.7547 111.718 10.8318 114.116 11.8611C114.384 11.9769 114.678 12.0412 114.971 12.0412C116.566 12.0541 118.148 12.0541 119.806 12.0541C119.806 12.7102 119.896 13.3406 119.768 13.9324C119.704 14.2155 119.309 14.5371 119.003 14.6529C118.454 14.8588 117.855 14.9102 117.217 15.0389C117.574 16.1968 117.714 17.329 117.433 18.4741C116.745 21.2143 114.805 22.591 112.215 23.0799C111.054 23.2986 109.817 23.1828 108.605 23.1571C108.03 23.1443 107.456 23.453 107.303 24.019C107.15 24.611 107.367 25.0998 108.018 25.2414C109.051 25.4601 110.11 25.55 111.156 25.6788C112.687 25.8589 114.257 25.8976 115.762 26.1805C120.087 26.9909 120.202 31.005 118.569 33.3982C117.433 35.0706 115.813 36.0226 113.899 36.5245C110.876 37.3222 107.89 37.2191 104.981 35.9842C103.884 35.521 102.965 34.8134 102.404 33.7068C101.587 32.1116 101.957 30.3232 103.374 29.2296C103.833 28.908 104.343 28.6378 104.853 28.329ZM110.443 33.7583C110.455 33.7068 110.455 33.8097 110.467 33.7583C110.659 33.7583 110.85 33.7712 111.041 33.7583C112.203 33.6684 113.364 33.5525 114.397 32.8964C115.086 32.4589 115.405 31.8028 115.328 30.9923C115.252 30.246 114.678 29.9372 114.052 29.7184C113.899 29.667 113.734 29.5898 113.568 29.5771C111.628 29.4098 109.689 29.2425 107.737 29.0882C107.673 29.0882 107.609 29.101 107.558 29.1267C106.793 29.3841 105.951 30.5419 105.938 31.3396C105.925 32.1888 106.41 32.9478 107.367 33.2437C108.349 33.5525 109.351 33.7583 110.443 33.7583ZM110.212 14.2541C108.936 14.2541 107.763 14.55 107.188 15.8237C106.653 17.0202 106.716 18.2553 107.546 19.336C108.477 20.5454 110.952 20.8026 112.33 19.7991C112.713 19.529 113.057 19.1172 113.249 18.6928C114.308 16.364 112.853 14.267 110.212 14.2541Z" fill="#08DDDD"/>
<path d="M129.762 11.5342C131.165 11.5342 132.454 11.5213 133.755 11.5342C134.47 11.547 134.852 11.9973 135.108 12.6149C136.371 15.7412 137.647 18.8546 138.91 21.9811C139.088 22.4185 139.267 22.843 139.509 23.422C139.662 23.0747 139.79 22.843 139.879 22.6115C141.283 19.2279 142.686 15.8441 144.077 12.4476C144.319 11.8429 144.715 11.457 145.34 11.4441C146.526 11.4055 147.713 11.4313 149.002 11.4313C148.887 11.7014 148.81 11.9201 148.734 12.126C145.48 19.7939 142.227 27.4746 138.974 35.1425C138.425 36.4548 138.233 36.5834 136.779 36.5834C135.886 36.5834 134.993 36.5707 134.1 36.5707C134.061 36.5707 134.036 36.532 133.947 36.4933C134.585 34.9882 135.222 33.4829 135.873 31.9776C136.307 30.9611 136.779 29.9449 137.174 28.9155C137.276 28.6583 137.264 28.2851 137.149 28.0406C134.801 22.7786 132.441 17.5296 130.081 12.2804C129.979 12.0745 129.902 11.8558 129.762 11.5342Z" fill="#08DDDD"/>
<path d="M127.423 3.04297C127.423 3.31315 127.423 3.51899 127.423 3.73771C127.423 11.1998 127.423 18.6617 127.423 26.1239C127.423 27.7448 126.708 28.4781 125.114 28.4911C124.399 28.4911 123.672 28.4911 122.906 28.4911C122.906 19.9997 122.906 11.5471 122.906 3.05583C124.399 3.04297 125.866 3.04297 127.423 3.04297Z" fill="#08DDDD"/>
<path d="M66.0156 11.1357C67.5084 11.1357 68.9628 11.1357 70.494 11.1357C70.494 11.4059 70.494 11.6246 70.494 11.8562C70.494 16.6293 70.494 21.3897 70.494 26.1628C70.494 27.771 69.8049 28.4657 68.2101 28.4657C67.4958 28.4657 66.7683 28.4657 66.0156 28.4657C66.0156 22.689 66.0156 16.9381 66.0156 11.1357Z" fill="#08DDDD"/>
<path d="M65.3399 5.93742C65.3271 4.29063 66.5903 2.99121 68.2106 2.99121C69.7926 2.99121 71.094 4.27777 71.1069 5.86024C71.1195 7.41697 69.8055 8.76785 68.2488 8.78073C66.6668 8.80645 65.3526 7.51989 65.3399 5.93742Z" fill="#08DDDD"/>
<g clip-path="url(#clip0_25780_1192)">
<path d="M11.6814 37.2897C21.5271 41.5875 32.9926 37.0901 37.2904 27.2444C41.5882 17.3987 37.0908 5.93319 27.2451 1.63538C17.3995 -2.66242 5.93391 1.83501 1.6361 11.6807C-2.66171 21.5264 1.83573 32.9919 11.6814 37.2897Z" fill="url(#paint0_linear_25780_1192)"/>
<path d="M18.2848 21.458H16.1562V23.5841H18.2848V21.458Z" fill="#151E31"/>
<path d="M16.1559 25.7109H14.0273V27.837H16.1559V25.7109Z" fill="#D89580"/>
<path d="M20.4137 25.7109H18.2852V27.837H20.4137V25.7109Z" fill="#D89580"/>
<path d="M24.6715 25.7109H22.543V27.837H24.6715V25.7109Z" fill="#D89580"/>
<path d="M16.1559 23.584H14.0273V25.7103H16.1559V23.584Z" fill="#D89580"/>
<path d="M20.4137 23.584H18.2852V25.7103H20.4137V23.584Z" fill="#D89580"/>
<path d="M24.6715 23.584H22.543V25.7103H24.6715V23.584Z" fill="#D89580"/>
<path d="M16.1559 21.458H14.0273V23.5841H16.1559V21.458Z" fill="#D89580"/>
<path d="M14.0269 23.584H11.8984V25.7103H14.0269V23.584Z" fill="#D89580"/>
<path d="M26.8004 23.584H24.6719V25.7103H26.8004V23.584Z" fill="#D89580"/>
<path d="M20.4137 21.458H18.2852V23.5841H20.4137V21.458Z" fill="#D89580"/>
<path d="M24.6715 21.458H22.543V23.5841H24.6715V21.458Z" fill="#D89580"/>
<path d="M18.2848 25.7109H16.1562V27.837H18.2848V25.7109Z" fill="#D89580"/>
<path d="M18.2848 23.584H16.1562V25.7103H18.2848V23.584Z" fill="#D89580"/>
<path d="M22.5426 25.7109H20.4141V27.837H22.5426V25.7109Z" fill="#D89580"/>
<path d="M22.5426 23.584H20.4141V25.7103H22.5426V23.584Z" fill="#D89580"/>
<path d="M22.5426 21.458H20.4141V23.5841H22.5426V21.458Z" fill="#151E31"/>
<path d="M16.1559 27.8369H14.0273V29.9632H16.1559V27.8369Z" fill="#D89580"/>
<path d="M24.6715 27.8369H22.543V29.9632H24.6715V27.8369Z" fill="#D89580"/>
<path d="M26.8004 15.0781H24.6719V17.2042H26.8004V15.0781Z" fill="#253453"/>
<path d="M26.8004 12.9512H24.6719V15.0774H26.8004V12.9512Z" fill="#253453"/>
<path d="M14.0269 10.8252H11.8984V12.9514H14.0269V10.8252Z" fill="#253453"/>
<path d="M26.8004 10.8252H24.6719V12.9514H26.8004V10.8252Z" fill="#253453"/>
<path d="M20.4137 15.0781H18.2852V17.2042H20.4137V15.0781Z" fill="#151E31"/>
<path d="M22.5426 15.0781H20.4141V17.2042H22.5426V15.0781Z" fill="#151E31"/>
<path d="M24.6715 15.0781H22.543V17.2042H24.6715V15.0781Z" fill="#151E31"/>
<path d="M20.4137 12.9512H18.2852V15.0774H20.4137V12.9512Z" fill="#151E31"/>
<path d="M18.2848 12.9512H16.1562V15.0774H18.2848V12.9512Z" fill="#151E31"/>
<path d="M22.5426 12.9512H20.4141V15.0774H22.5426V12.9512Z" fill="#151E31"/>
<path d="M24.6715 12.9512H22.543V15.0774H24.6715V12.9512Z" fill="#253453"/>
<path d="M16.1559 10.8252H14.0273V12.9514H16.1559V10.8252Z" fill="#151E31"/>
<path d="M20.4137 10.8252H18.2852V12.9514H20.4137V10.8252Z" fill="#151E31"/>
<path d="M18.2848 10.8252H16.1562V12.9514H18.2848V10.8252Z" fill="#151E31"/>
<path d="M22.5426 10.8252H20.4141V12.9514H22.5426V10.8252Z" fill="#253453"/>
<path d="M24.6715 10.8252H22.543V12.9514H24.6715V10.8252Z" fill="#253453"/>
<path d="M16.1559 8.73535H14.0273V10.8616H16.1559V8.73535Z" fill="#253453"/>
<path d="M20.4137 8.73535H18.2852V10.8616H20.4137V8.73535Z" fill="#253453"/>
<path d="M18.2848 8.73535H16.1562V10.8616H18.2848V8.73535Z" fill="#253453"/>
<path d="M22.5426 8.73535H20.4141V10.8616H22.5426V8.73535Z" fill="#253453"/>
<path d="M24.6715 8.73535H22.543V10.8616H24.6715V8.73535Z" fill="#253453"/>
<path d="M16.1559 19.3311H14.0273V21.4574H16.1559V19.3311Z" fill="#151E31"/>
<path d="M14.0269 19.3311H11.8984V21.4574H14.0269V19.3311Z" fill="#151E31"/>
<path d="M26.8004 19.3311H24.6719V21.4574H26.8004V19.3311Z" fill="#151E31"/>
<path d="M14.0269 17.2051H11.8984V19.3314H14.0269V17.2051Z" fill="#151E31"/>
<path d="M11.898 19.3311H9.76953V21.4574H11.898V19.3311Z" fill="#151E31"/>
<path d="M11.898 17.2051H9.76953V19.3314H11.898V17.2051Z" fill="#151E31"/>
<path d="M26.8004 17.2051H24.6719V19.3314H26.8004V17.2051Z" fill="#151E31"/>
<path d="M14.0269 15.0781H11.8984V17.2042H14.0269V15.0781Z" fill="#151E31"/>
<path d="M14.0269 12.9512H11.8984V15.0774H14.0269V12.9512Z" fill="#151E31"/>
<path d="M20.4137 19.3311H18.2852V21.4574H20.4137V19.3311Z" fill="#151E31"/>
<path d="M24.6715 19.3311H22.543V21.4574H24.6715V19.3311Z" fill="#151E31"/>
<path d="M16.1559 17.2051H14.0273V19.3314H16.1559V17.2051Z" fill="#151E31"/>
<path d="M20.4137 17.2051H18.2852V19.3314H20.4137V17.2051Z" fill="#151E31"/>
<path d="M24.6715 17.2051H22.543V19.3314H24.6715V17.2051Z" fill="#151E31"/>
<path d="M16.1559 15.0781H14.0273V17.2042H16.1559V15.0781Z" fill="#151E31"/>
<path d="M18.2848 19.3311H16.1562V21.4574H18.2848V19.3311Z" fill="#151E31"/>
<path d="M18.2848 17.2051H16.1562V19.3314H18.2848V17.2051Z" fill="#151E31"/>
<path d="M18.2848 15.0781H16.1562V17.2042H18.2848V15.0781Z" fill="#151E31"/>
<path d="M22.5426 19.3311H20.4141V21.4574H22.5426V19.3311Z" fill="#151E31"/>
<path d="M22.5426 17.2051H20.4141V19.3314H22.5426V17.2051Z" fill="#151E31"/>
<path d="M16.1559 12.9512H14.0273V15.0774H16.1559V12.9512Z" fill="#151E31"/>
<path d="M28.9293 19.3311H26.8008V21.4574H28.9293V19.3311Z" fill="#151E31"/>
<path d="M28.9293 17.2051H26.8008V19.3314H28.9293V17.2051Z" fill="#151E31"/>
<path d="M28.9258 19.3311H31.0554V21.4574H28.9258" fill="#151E31"/>
<path d="M28.9258 17.2051H31.0554V19.3314H28.9258" fill="#151E31"/>
<path d="M7.64062 19.3311H9.7691V21.4574H7.64062" fill="#151E31"/>
<path d="M7.64062 17.2051H9.7691V19.3314H7.64062" fill="#151E31"/>
<path d="M14.0269 21.458H11.8984V23.5841H14.0269V21.458Z" fill="#9A786C"/>
<path d="M14.0621 25.7109H11.9336V27.837H14.0621V25.7109Z" fill="#9A786C"/>
<path d="M26.8004 21.458H24.6719V23.5841H26.8004V21.458Z" fill="#9A786C"/>
<path d="M26.7613 25.7109H24.6328V27.837H26.7613V25.7109Z" fill="#9A786C"/>
<path d="M18.2848 27.8369H16.1562V29.9632H18.2848V27.8369Z" fill="#D89580"/>
<path d="M22.5426 27.8369H20.4141V29.9632H22.5426V27.8369Z" fill="#D89580"/>
<path d="M20.4137 27.8369H18.2852V29.9632H20.4137V27.8369Z" fill="#D89580"/>
</g>
<defs>
<linearGradient id="paint0_linear_25780_1192" x1="27.2451" y1="1.63542" x2="11.6814" y2="37.2898" gradientUnits="userSpaceOnUse">
<stop offset="0.276042" stop-color="#08DDDD"/>
<stop offset="0.411458" stop-color="#23C3D7"/>
<stop offset="0.604167" stop-color="#5E8AC9"/>
<stop offset="0.765625" stop-color="#9654BB"/>
<stop offset="0.994792" stop-color="#AD3EB6"/>
</linearGradient>
<clipPath id="clip0_25780_1192">
<rect width="38.9027" height="38.9027" fill="white"/>
</clipPath>
</defs>
</svg>
